<svg xmlns="http://www.w3.org/2000/svg" width="512" height="512" viewBox="0 0 512 512">
    <rect width="512" height="512" fill="#1a1a1a"/>
    <rect x="51.2" y="51.2" width="409.6" height="409.6" fill="none" stroke="#4a9eff" stroke-width="10" rx="25.6"/>
    <rect x="419.84" y="102.4" width="30.72" height="40.96" fill="#1a1a1a" stroke="#4a9eff" stroke-width="5" rx="5.12"/>
    <rect x="419.84" y="179.2" width="30.72" height="40.96" fill="#1a1a1a" stroke="#4a9eff" stroke-width="5" rx="5.12"/>
    <rect x="419.84" y="256" width="30.72" height="40.96" fill="#1a1a1a" stroke="#4a9eff" stroke-width="5" rx="5.12"/>
    <rect x="419.84" y="332.8" width="30.72" height="40.96" fill="#1a1a1a" stroke="#4a9eff" stroke-width="5" rx="5.12"/>
    <rect x="61.44" y="76.8" width="61.44" height="358.4" fill="#1a1a1a" stroke="#4a9eff" stroke-width="5"/>
    <path d="M76.8 256 Q87.04 153.6 92.16 256 Q97.28 358.4 107.52 256 Q117.76 179.2 122.88 256" fill="none" stroke="#4a9eff" stroke-width="8" stroke-linecap="round"/>
    <rect x="143.36" y="102.4" width="245.76" height="307.2" fill="none" stroke="#4a9eff" stroke-width="4" stroke-dasharray="15.36"/>
    <circle cx="266.24" cy="256" r="40.96" fill="none" stroke="#4a9eff" stroke-width="8"/>
    <path d="M225.28 256 h20.48 M286.72 256 h20.48" stroke="#4a9eff" stroke-width="8" stroke-linecap="round"/>
    <path d="M204.8 256 v-30.72 v61.44" stroke="#4a9eff" stroke-width="8" stroke-linecap="round"/>
    <path d="M327.68 256 v-30.72 v61.44" stroke="#4a9eff" stroke-width="8" stroke-linecap="round"/>
</svg>